<svg xmlns="http://www.w3.org/2000/svg" xmlns:xlink="http://www.w3.org/1999/xlink" width="500" zoomAndPan="magnify" viewBox="0 0 375 374.999991" height="500" preserveAspectRatio="xMidYMid meet" version="1.0"><defs><g/><clipPath id="29227b0b78"><path d="M 137.28125 89.675781 L 234.671875 89.675781 L 234.671875 227.878906 L 137.28125 227.878906 Z M 137.28125 89.675781 " clip-rule="nonzero"/></clipPath><clipPath id="3888c96b04"><path d="M 134.117188 85.445312 L 257 85.445312 L 257 227.945312 L 134.117188 227.945312 Z M 134.117188 85.445312 " clip-rule="nonzero"/></clipPath></defs><g clip-path="url(#29227b0b78)"><path fill="#FFFFFF" d="M 137.460938 151.039062 C 137.609375 151.011719 137.761719 150.988281 137.914062 150.972656 C 138.1875 150.945312 138.460938 150.933594 138.734375 150.933594 C 139.277344 150.933594 139.820312 150.988281 140.347656 151.097656 L 140.347656 92.703125 L 168.910156 92.703125 C 169.433594 91.671875 170.011719 90.707031 170.640625 89.8125 L 137.460938 89.8125 Z M 231.585938 224.992188 L 220.300781 224.992188 L 223.09375 227.878906 L 234.476562 227.878906 L 234.476562 167.027344 L 231.585938 167.054688 Z M 140.347656 163.855469 C 140.074219 163.925781 139.792969 163.980469 139.503906 164.011719 L 139.328125 162.214844 L 139.5 164.011719 C 139.304688 164.03125 139.105469 164.042969 138.910156 164.042969 C 138.410156 164.042969 137.925781 163.972656 137.460938 163.855469 L 137.460938 227.878906 L 167.933594 227.878906 L 169.328125 224.992188 L 140.347656 224.992188 Z M 193.625 224.992188 L 193.308594 227.878906 L 209.160156 227.878906 L 206.148438 224.992188 Z M 202.234375 89.8125 C 202.816406 90.523438 203.367188 91.289062 203.878906 92.109375 C 204 92.300781 204.121094 92.503906 204.238281 92.703125 L 231.585938 92.703125 L 231.585938 113.988281 L 234.476562 114.238281 L 234.476562 89.8125 L 202.234375 89.8125 " fill-opacity="1" fill-rule="nonzero"/></g><g clip-path="url(#3888c96b04)"><path fill="#FFFFFF" d="M 174.335938 191.351562 L 174.320312 191.351562 C 174.300781 191.351562 174.285156 191.351562 174.261719 191.351562 C 174.289062 191.351562 174.3125 191.351562 174.335938 191.351562 Z M 153.015625 141.347656 C 148.625 138.351562 145.324219 131.382812 144.867188 122.984375 C 144.230469 111.304688 149.324219 101.28125 156.246094 100.59375 C 157.851562 100.433594 159.410156 100.796875 160.867188 101.582031 C 161.207031 101.808594 161.539062 102.054688 161.863281 102.328125 L 167.699219 102.75 C 167.6875 102.832031 167.675781 102.910156 167.667969 102.992188 L 162.878906 103.277344 C 162.921875 103.320312 162.960938 103.367188 163 103.410156 L 167.582031 103.601562 C 167.5625 103.773438 167.542969 103.953125 167.523438 104.128906 L 163.976562 104.550781 C 163.996094 104.578125 164.015625 104.601562 164.035156 104.625 L 167.453125 104.769531 C 167.417969 105.15625 167.390625 105.542969 167.367188 105.9375 L 165.191406 106.324219 C 165.238281 106.398438 165.285156 106.476562 165.332031 106.554688 L 167.332031 106.609375 C 167.300781 107.253906 167.289062 107.90625 167.292969 108.566406 L 166.476562 108.769531 C 166.507812 108.835938 166.535156 108.894531 166.5625 108.957031 L 167.296875 109 C 167.304688 109.53125 167.320312 110.066406 167.347656 110.601562 C 167.535156 114.035156 168.144531 117.253906 169.085938 120.121094 C 169.5625 129.511719 166.335938 137.808594 161.441406 141.007812 L 165.75 139.320312 C 168.808594 136.5 170.824219 131.074219 170.867188 124.871094 C 171.824219 126.871094 174.757812 132.179688 179.527344 133.917969 L 181.304688 133.222656 C 179.828125 132.886719 178.933594 132.503906 177.980469 132.015625 C 177.609375 131.816406 177.25 131.589844 176.894531 131.347656 C 172.246094 127.808594 168.804688 120.242188 168.308594 111.1875 C 167.59375 98.113281 173.292969 86.894531 181.042969 86.125 C 182.835938 85.949219 184.582031 86.355469 186.214844 87.234375 C 186.59375 87.492188 186.964844 87.765625 187.328125 88.070312 L 195.847656 88.6875 L 188.464844 89.132812 C 188.511719 89.179688 188.554688 89.230469 188.601562 89.28125 L 197.335938 89.644531 L 189.691406 90.558594 C 189.714844 90.585938 189.734375 90.617188 189.757812 90.644531 L 199.4375 91.046875 L 191.054688 92.542969 C 191.105469 92.625 191.15625 92.714844 191.207031 92.796875 L 201.238281 93.070312 L 192.492188 95.28125 C 192.523438 95.347656 192.558594 95.417969 192.589844 95.488281 L 203.089844 96.109375 L 193.777344 98.664062 C 193.820312 98.808594 193.867188 98.949219 193.910156 99.097656 L 203.613281 99.53125 L 194.46875 101.1875 C 194.492188 101.285156 194.511719 101.382812 194.535156 101.476562 L 203.664062 101.984375 L 194.816406 102.863281 C 195.109375 104.453125 195.3125 106.109375 195.40625 107.820312 C 196.121094 120.894531 190.417969 132.113281 182.667969 132.882812 C 184.285156 132.722656 191.707031 133.679688 194.179688 133.4375 C 201.882812 132.671875 207.550781 121.519531 206.839844 108.527344 C 206.171875 96.34375 200.136719 86.871094 193.039062 86.363281 C 192.574219 86.328125 183.785156 85.664062 181.523438 85.523438 C 181.535156 85.523438 181.550781 85.527344 181.566406 85.527344 C 181.074219 85.492188 180.578125 85.496094 180.082031 85.542969 C 174.339844 86.113281 169.730469 92.417969 168.011719 100.960938 C 167.667969 100.886719 167.320312 100.828125 166.964844 100.804688 C 166.550781 100.773438 158.699219 100.179688 156.675781 100.054688 C 156.703125 100.054688 156.730469 100.058594 156.757812 100.0625 C 156.605469 100.050781 156.453125 100.046875 156.300781 100.042969 C 156.425781 100.042969 156.550781 100.042969 156.675781 100.050781 C 156.644531 100.050781 156.605469 100.046875 156.578125 100.046875 C 156.476562 100.039062 156.378906 100.042969 156.277344 100.042969 C 155.984375 100.035156 155.6875 100.042969 155.386719 100.070312 C 148.464844 100.757812 143.371094 110.78125 144.007812 122.460938 C 144.5 131.398438 148.203125 138.710938 153.015625 141.347656 Z M 179.324219 99.734375 C 179.351562 99.738281 179.378906 99.746094 179.398438 99.75 C 179.414062 99.753906 179.425781 99.757812 179.4375 99.761719 C 179.398438 99.75 179.359375 99.742188 179.324219 99.734375 Z M 176.886719 103.054688 C 176.898438 103.058594 176.902344 103.0625 176.910156 103.0625 C 176.886719 103.058594 176.859375 103.050781 176.832031 103.042969 C 176.851562 103.046875 176.875 103.050781 176.886719 103.054688 Z M 181.304688 119.816406 C 184.605469 119.492188 187.035156 114.707031 186.730469 109.132812 C 186.449219 103.910156 183.859375 99.84375 180.8125 99.628906 C 180.613281 99.613281 179.011719 99.546875 178.226562 99.640625 C 178.238281 99.640625 178.253906 99.644531 178.265625 99.644531 C 178.21875 99.644531 178.171875 99.644531 178.125 99.652344 C 175.886719 99.875 174.046875 102.140625 173.179688 105.308594 C 172.480469 106.664062 172.101562 108.488281 172.207031 110.457031 C 172.316406 112.429688 172.898438 114.160156 173.738281 115.363281 C 174.523438 117.28125 175.667969 118.742188 176.988281 119.464844 C 175.957031 118.761719 175.054688 117.59375 174.375 116.121094 C 174.636719 116.378906 174.917969 116.59375 175.210938 116.753906 C 173.75 115.753906 172.648438 113.429688 172.496094 110.628906 C 172.28125 106.734375 173.980469 103.390625 176.289062 103.160156 C 176.824219 103.109375 177.339844 103.230469 177.824219 103.488281 C 179.300781 104.476562 180.414062 106.808594 180.570312 109.625 C 180.78125 113.523438 179.085938 116.867188 176.777344 117.09375 C 177.253906 117.046875 177.472656 117.074219 178.210938 117 C 180.503906 116.773438 182.195312 113.449219 181.984375 109.574219 C 181.785156 105.945312 179.984375 103.121094 177.871094 102.96875 C 177.730469 102.960938 176.617188 102.914062 176.074219 102.980469 C 176.078125 102.980469 176.089844 102.980469 176.101562 102.984375 C 176.070312 102.984375 176.035156 102.984375 176.003906 102.988281 C 175.320312 103.054688 174.691406 103.394531 174.152344 103.941406 C 175.136719 101.640625 176.703125 100.082031 178.539062 99.902344 C 179.300781 99.828125 180.039062 99.996094 180.734375 100.367188 C 182.867188 101.785156 184.476562 105.144531 184.699219 109.207031 C 185.007812 114.8125 182.5625 119.625 179.238281 119.953125 C 179.929688 119.886719 180.242188 119.925781 181.304688 119.816406 Z M 179.316406 119.003906 C 179.332031 119 179.347656 119 179.363281 118.996094 C 182.332031 118.707031 184.507812 114.28125 184.226562 109.117188 C 183.945312 103.953125 181.308594 100.003906 178.34375 100.296875 C 177.476562 100.382812 176.675781 100.824219 175.984375 101.53125 C 176.617188 100.957031 177.332031 100.59375 178.105469 100.519531 C 181.039062 100.226562 183.648438 104.136719 183.929688 109.246094 C 184.203125 114.242188 182.148438 118.535156 179.316406 119.003906 Z M 226.976562 142.054688 L 251.121094 129.441406 L 226.582031 139.101562 L 249.878906 126.257812 L 224.703125 137.839844 L 251.722656 121.980469 C 252.242188 122.855469 252.585938 123.820312 252.6875 124.820312 L 253.847656 136.535156 Z M 227.144531 164.117188 C 223.707031 163.820312 220.621094 160.816406 220.289062 157.441406 L 216.746094 121.703125 C 216.410156 118.328125 218.949219 115.8125 222.382812 116.109375 L 245.832031 118.144531 C 246.035156 118.160156 246.242188 118.191406 246.445312 118.226562 C 246.527344 118.242188 246.609375 118.261719 246.6875 118.28125 C 246.804688 118.308594 246.921875 118.332031 247.039062 118.363281 C 247.148438 118.394531 247.25 118.429688 247.355469 118.464844 C 247.441406 118.492188 247.527344 118.519531 247.613281 118.550781 C 247.738281 118.59375 247.855469 118.644531 247.976562 118.695312 C 248.039062 118.722656 248.101562 118.75 248.164062 118.777344 C 248.300781 118.839844 248.433594 118.90625 248.5625 118.976562 C 248.605469 119 248.648438 119.019531 248.691406 119.042969 C 248.832031 119.125 248.976562 119.207031 249.113281 119.296875 C 249.140625 119.316406 249.167969 119.332031 249.191406 119.347656 C 249.339844 119.445312 249.488281 119.546875 249.628906 119.65625 C 249.640625 119.664062 249.652344 119.675781 249.664062 119.683594 C 249.816406 119.796875 249.960938 119.917969 250.105469 120.042969 C 249.105469 119.398438 247.972656 118.972656 246.796875 118.871094 L 223.351562 116.839844 C 219.914062 116.539062 217.375 119.058594 217.710938 122.429688 L 219.226562 137.730469 L 221.148438 137.898438 C 222.582031 138.023438 223.871094 139.277344 224.011719 140.6875 L 225.398438 154.671875 C 225.449219 155.207031 225.332031 155.683594 225.085938 156.070312 C 229.1875 157.375 244.996094 162.402344 249.789062 163.902344 Z M 213.152344 157.144531 C 210.101562 155.742188 210.398438 152.90625 210.398438 152.90625 C 210.398438 152.90625 209.035156 139.128906 208.824219 137.019531 C 208.695312 135.71875 209.082031 134.464844 209.402344 133.695312 L 212.054688 153.851562 L 210.042969 132.390625 L 210.902344 130.753906 L 214.070312 154.835938 L 211.675781 129.273438 L 213.113281 126.527344 L 217.148438 157.171875 L 214.101562 124.640625 L 215.839844 121.324219 L 219.503906 158.292969 C 219.570312 158.992188 219.757812 159.675781 220.035156 160.328125 C 218.316406 159.53125 215.261719 158.117188 213.152344 157.144531 Z M 202.652344 162.628906 C 201.417969 162.625 200.214844 162.328125 199.078125 161.800781 C 200.089844 162.226562 201.152344 162.460938 202.238281 162.46875 C 206.277344 162.484375 209.410156 159.316406 210.300781 154.863281 C 210.414062 155.242188 210.550781 155.566406 210.691406 155.835938 C 209.527344 159.871094 206.484375 162.648438 202.652344 162.628906 Z M 208.320312 179.832031 L 209.167969 181.140625 C 209.082031 181.195312 208.992188 181.226562 208.886719 181.226562 C 208.53125 181.226562 208.210938 180.863281 208.167969 180.421875 C 208.144531 180.1875 208.203125 179.976562 208.320312 179.832031 Z M 208.734375 179.621094 C 209.089844 179.621094 209.414062 179.984375 209.453125 180.425781 C 209.472656 180.613281 209.4375 180.78125 209.363281 180.917969 L 208.550781 179.660156 C 208.609375 179.636719 208.667969 179.621094 208.734375 179.621094 Z M 204.585938 171.308594 C 203.957031 172.359375 200.910156 177.382812 200.910156 177.382812 C 200.910156 177.382812 200.519531 178.144531 200.089844 178.199219 C 199.660156 178.253906 198.949219 177.523438 198.949219 177.523438 C 198.949219 177.523438 195.605469 173.5625 193.535156 171.207031 C 191.464844 168.847656 194.277344 169.386719 194.277344 169.386719 L 203.832031 169.792969 C 203.832031 169.792969 205.550781 169.710938 204.585938 171.308594 Z M 190.804688 181.804688 L 189.886719 180.390625 C 189.953125 180.363281 190.019531 180.347656 190.09375 180.347656 C 190.496094 180.347656 190.859375 180.753906 190.90625 181.253906 C 190.929688 181.464844 190.886719 181.652344 190.804688 181.804688 Z M 190.269531 182.152344 C 189.871094 182.152344 189.507812 181.746094 189.457031 181.246094 C 189.433594 180.980469 189.503906 180.746094 189.628906 180.582031 L 190.582031 182.054688 C 190.492188 182.117188 190.386719 182.152344 190.269531 182.152344 Z M 185.871094 151.554688 C 185.238281 145 188.464844 139.554688 193.320312 138.363281 C 193.445312 138.332031 193.699219 138.273438 194.03125 138.199219 C 190.546875 140.648438 188.476562 145.308594 188.992188 150.648438 C 189.675781 157.789062 194.734375 163.691406 200.691406 164.722656 C 200.089844 164.847656 199.566406 164.949219 199.265625 164.992188 C 198.847656 165.054688 198.417969 165.085938 197.980469 165.082031 C 192.011719 165.054688 186.589844 159 185.871094 151.554688 Z M 184.71875 135.394531 C 184.691406 135.132812 184.761719 134.898438 184.890625 134.730469 L 185.839844 136.207031 C 185.75 136.265625 185.644531 136.304688 185.53125 136.300781 C 185.128906 136.300781 184.765625 135.894531 184.71875 135.394531 Z M 185.355469 134.496094 C 185.753906 134.5 186.121094 134.902344 186.167969 135.402344 C 186.1875 135.613281 186.144531 135.800781 186.066406 135.957031 L 185.148438 134.539062 C 185.214844 134.511719 185.28125 134.496094 185.355469 134.496094 Z M 199.101562 137.179688 C 199.246094 137.160156 199.394531 137.148438 199.542969 137.136719 C 193.917969 137.535156 189.988281 143.375 190.679688 150.546875 C 191.398438 157.992188 196.820312 164.046875 202.789062 164.074219 C 203.335938 164.078125 203.871094 164.027344 204.386719 163.929688 C 204.355469 163.933594 204.328125 163.945312 204.296875 163.949219 C 203.992188 164 202.53125 164.332031 201.21875 164.609375 C 195.246094 163.648438 190.15625 157.75 189.472656 150.609375 C 188.945312 145.148438 191.136719 140.402344 194.785156 138.03125 C 196.265625 137.707031 198.367188 137.269531 199.101562 137.179688 Z M 197.613281 154.851562 C 197.335938 152.945312 197.925781 151.28125 199.03125 150.378906 C 199.207031 150.324219 199.390625 150.265625 199.578125 150.207031 C 198.441406 151.160156 197.785156 152.773438 197.960938 154.605469 C 198.222656 157.347656 200.257812 159.589844 202.605469 159.839844 C 202.417969 159.898438 202.230469 159.960938 202.039062 160.023438 C 199.921875 159.683594 198 157.496094 197.613281 154.851562 Z M 197.832031 150.75 C 197.851562 150.746094 197.886719 150.734375 197.9375 150.722656 C 196.828125 151.621094 196.234375 153.289062 196.515625 155.199219 C 196.902344 157.84375 198.820312 160.03125 200.9375 160.367188 C 200.488281 160.507812 200.140625 160.609375 200.035156 160.625 C 199.882812 160.648438 199.722656 160.660156 199.558594 160.65625 C 197.347656 160.648438 195.335938 158.402344 195.074219 155.640625 C 194.835938 153.210938 196.03125 151.195312 197.832031 150.75 Z M 194.742188 145.207031 C 195.042969 147.273438 196.542969 148.984375 198.199219 149.25 C 197.847656 149.359375 197.574219 149.441406 197.492188 149.453125 C 197.371094 149.46875 197.246094 149.476562 197.121094 149.476562 C 195.390625 149.46875 193.816406 147.714844 193.609375 145.554688 C 193.425781 143.65625 194.363281 142.078125 195.769531 141.730469 C 195.785156 141.726562 195.8125 141.71875 195.851562 141.707031 C 194.984375 142.410156 194.519531 143.714844 194.742188 145.207031 Z M 202.976562 144.617188 C 203.085938 145.773438 202.78125 146.804688 202.210938 147.515625 C 202.21875 147.785156 202.242188 148.058594 202.28125 148.339844 C 202.332031 148.683594 202.410156 149.015625 202.503906 149.339844 C 202.347656 149.324219 202.195312 149.3125 202.035156 149.3125 C 201.605469 149.3125 201.199219 149.390625 200.820312 149.519531 C 200.769531 149.289062 200.730469 149.058594 200.707031 148.824219 C 200.695312 148.703125 200.691406 148.585938 200.683594 148.46875 C 200.675781 148.472656 200.664062 148.476562 200.652344 148.476562 C 200.578125 148.488281 199.816406 148.738281 199.058594 148.980469 C 197.402344 148.714844 195.902344 147.003906 195.601562 144.9375 C 195.378906 143.445312 195.839844 142.144531 196.707031 141.441406 C 197.636719 141.148438 198.941406 140.742188 199.148438 140.714844 C 199.25 140.703125 199.355469 140.695312 199.460938 140.699219 C 200.980469 140.703125 202.378906 142.058594 202.835938 143.847656 C 203.113281 143.691406 203.40625 143.566406 203.71875 143.488281 C 203.738281 143.484375 203.777344 143.472656 203.832031 143.457031 C 203.492188 143.734375 203.195312 144.078125 202.953125 144.472656 C 202.960938 144.523438 202.96875 144.570312 202.976562 144.617188 Z M 207.289062 141.894531 C 207.035156 142.398438 206.824219 142.949219 206.671875 143.53125 C 205.789062 144.425781 205.292969 145.859375 205.449219 147.480469 C 205.632812 149.394531 206.667969 151.046875 208.027344 151.871094 C 208.359375 152.402344 208.730469 152.890625 209.140625 153.332031 C 208.875 153.417969 208.59375 153.507812 208.308594 153.601562 C 207.769531 153.515625 207.242188 153.316406 206.746094 153.027344 C 206.84375 153.324219 206.921875 153.632812 206.980469 153.953125 C 207.023438 153.957031 207.0625 153.972656 207.105469 153.976562 C 207.066406 153.992188 207.027344 154.003906 206.988281 154.015625 C 207.011719 154.15625 207.035156 154.300781 207.046875 154.445312 C 207.289062 156.964844 205.996094 159.042969 204.078125 159.378906 C 204.007812 159.390625 203.441406 159.570312 202.757812 159.792969 C 200.421875 159.546875 198.402344 157.316406 198.140625 154.589844 C 197.863281 151.695312 199.675781 149.339844 202.191406 149.332031 C 202.296875 149.332031 202.402344 149.339844 202.503906 149.347656 C 202.515625 149.375 202.519531 149.402344 202.527344 149.429688 C 202.539062 149.429688 202.546875 149.429688 202.558594 149.429688 C 203.046875 149.429688 203.527344 149.550781 203.980469 149.753906 C 203.746094 149.1875 203.574219 148.585938 203.480469 147.960938 C 203.175781 145.878906 203.820312 144.066406 205.027344 143.082031 C 205.613281 142.898438 206.308594 142.683594 206.917969 142.496094 C 205.023438 140.390625 202.5625 139.082031 199.984375 139.070312 C 196.601562 139.054688 193.847656 141.277344 192.523438 144.625 C 193.832031 140.988281 196.730469 138.542969 200.332031 138.558594 C 202.90625 138.570312 205.359375 139.839844 207.289062 141.894531 Z M 204.042969 135.6875 L 204.886719 136.996094 C 204.804688 137.050781 204.714844 137.082031 204.609375 137.082031 C 204.253906 137.082031 203.929688 136.71875 203.886719 136.277344 C 203.867188 136.042969 203.925781 135.832031 204.042969 135.6875 Z M 204.453125 135.476562 C 204.8125 135.476562 205.132812 135.839844 205.175781 136.28125 C 205.195312 136.46875 205.15625 136.636719 205.085938 136.773438 L 204.269531 135.511719 C 204.328125 135.492188 204.390625 135.476562 204.453125 135.476562 Z M 208.113281 142.144531 C 208.265625 142.105469 208.375 142.078125 208.429688 142.070312 C 208.574219 142.054688 208.722656 142.046875 208.875 142.046875 C 208.878906 142.046875 208.878906 142.046875 208.882812 142.046875 L 208.933594 142.5625 C 208.40625 143.820312 208.171875 145.316406 208.328125 146.929688 C 208.484375 148.5625 209.019531 150.085938 209.808594 151.359375 L 209.976562 153.066406 C 208.59375 151.492188 207.628906 149.339844 207.398438 146.972656 C 207.226562 145.183594 207.503906 143.523438 208.113281 142.144531 Z M 208.777344 140.953125 L 208.867188 141.882812 C 208.742188 141.722656 208.617188 141.5625 208.488281 141.410156 C 208.578125 141.253906 208.675781 141.097656 208.777344 140.953125 Z M 256.964844 159.199219 L 253.480469 124.078125 C 253.132812 120.539062 249.894531 117.390625 246.292969 117.078125 L 221.699219 114.945312 C 218.699219 114.683594 216.359375 116.472656 215.859375 119.121094 C 214.957031 120.941406 213.089844 124.695312 211.542969 127.828125 L 211.539062 127.796875 L 211.449219 128.019531 C 210.628906 129.679688 209.90625 131.148438 209.480469 132.03125 C 207.9375 135.226562 208.324219 136.402344 208.324219 136.402344 C 208.324219 136.402344 208.472656 137.886719 208.679688 139.988281 C 208.417969 140.238281 208.175781 140.511719 207.949219 140.8125 C 207.316406 140.140625 206.625 139.542969 205.898438 139.035156 C 205.941406 139.066406 205.988281 139.09375 206.03125 139.125 L 205.597656 134.761719 L 183.488281 133.289062 L 188.421875 183.101562 L 210.273438 181.890625 L 208.304688 162.0625 C 208.289062 162.078125 208.273438 162.089844 208.257812 162.101562 C 209.761719 160.859375 210.929688 159.09375 211.632812 156.996094 C 211.710938 157.054688 211.761719 157.082031 211.761719 157.082031 L 221.8125 162.933594 C 223.125 164.238281 224.859375 165.136719 226.691406 165.292969 L 251.050781 165.0625 C 254.652344 165.375 257.3125 162.738281 256.964844 159.199219 Z M 155.445312 179.214844 C 155.441406 179.214844 155.441406 179.214844 155.4375 179.214844 C 155.433594 179.210938 155.425781 179.210938 155.421875 179.210938 C 155.429688 179.210938 155.433594 179.214844 155.445312 179.214844 Z M 176.890625 102.9375 C 176.878906 102.933594 176.867188 102.933594 176.855469 102.933594 C 176.820312 102.933594 176.78125 102.933594 176.746094 102.933594 C 176.792969 102.933594 176.839844 102.933594 176.890625 102.9375 Z M 175 194.835938 C 174.949219 193.875 174.445312 193.140625 173.875 193.195312 C 173.710938 193.214844 173.554688 193.296875 173.425781 193.429688 L 174.515625 196.453125 C 174.839844 196.132812 175.039062 195.519531 175 194.835938 Z M 172.941406 195.042969 C 172.992188 196.003906 173.496094 196.738281 174.066406 196.683594 C 174.15625 196.671875 174.246094 196.640625 174.328125 196.59375 L 173.261719 193.632812 C 173.039062 193.976562 172.910156 194.484375 172.941406 195.042969 Z M 157.019531 186.691406 C 157.03125 186.691406 157.042969 186.691406 157.054688 186.6875 C 158.910156 186.503906 160.273438 183.734375 160.097656 180.503906 C 159.917969 177.269531 158.269531 174.800781 156.414062 174.984375 C 155.871094 175.039062 155.371094 175.3125 154.9375 175.757812 C 155.335938 175.394531 155.78125 175.171875 156.265625 175.121094 C 158.101562 174.941406 159.734375 177.386719 159.910156 180.585938 C 160.082031 183.710938 158.796875 186.398438 157.019531 186.691406 Z M 155.132812 180.4375 C 155.128906 180.4375 155.128906 180.4375 155.128906 180.4375 C 155.125 180.4375 155.125 180.433594 155.125 180.433594 C 155.125 180.433594 155.128906 180.4375 155.132812 180.4375 Z M 155.398438 179.179688 C 155.410156 179.179688 155.425781 179.179688 155.4375 179.183594 C 155.433594 179.183594 155.429688 179.179688 155.429688 179.179688 C 155.417969 179.179688 155.410156 179.179688 155.398438 179.179688 Z M 156.246094 178.226562 L 156.230469 178.226562 C 156.21875 178.226562 156.203125 178.226562 156.1875 178.226562 C 156.207031 178.226562 156.226562 178.226562 156.246094 178.226562 Z M 156.101562 178.335938 C 156.109375 178.339844 156.113281 178.339844 156.117188 178.34375 C 156.089844 178.335938 156.066406 178.332031 156.039062 178.328125 C 156.066406 178.328125 156.089844 178.332031 156.101562 178.335938 Z M 154.316406 181.164062 C 154.378906 182.300781 154.851562 183.230469 155.460938 183.566406 C 154.902344 183.183594 154.480469 182.296875 154.425781 181.226562 C 154.34375 179.742188 154.992188 178.464844 155.875 178.378906 C 156.078125 178.355469 156.277344 178.402344 156.464844 178.503906 C 157.027344 178.882812 157.449219 179.769531 157.507812 180.847656 C 157.589844 182.332031 156.941406 183.609375 156.0625 183.695312 C 156.242188 183.679688 156.328125 183.6875 156.609375 183.660156 C 157.484375 183.574219 158.128906 182.304688 158.046875 180.828125 C 157.972656 179.441406 157.285156 178.363281 156.476562 178.304688 C 156.425781 178.300781 156 178.285156 155.792969 178.308594 C 155.800781 178.308594 155.816406 178.308594 155.828125 178.308594 C 155.808594 178.3125 155.785156 178.308594 155.765625 178.3125 C 154.882812 178.398438 154.234375 179.675781 154.316406 181.164062 Z M 157.304688 180.855469 C 157.375 182.179688 156.832031 183.320312 156.078125 183.445312 C 156.085938 183.445312 156.089844 183.445312 156.09375 183.441406 C 156.882812 183.363281 157.457031 182.191406 157.382812 180.820312 C 157.308594 179.453125 156.609375 178.40625 155.820312 178.484375 C 155.59375 178.503906 155.378906 178.621094 155.199219 178.808594 C 155.367188 178.65625 155.554688 178.5625 155.757812 178.542969 C 156.539062 178.464844 157.230469 179.5 157.304688 180.855469 Z M 202.808594 157.890625 C 201.417969 157.882812 200.152344 156.46875 199.984375 154.730469 C 199.816406 152.996094 200.808594 151.589844 202.203125 151.597656 C 203.597656 151.605469 204.863281 153.019531 205.027344 154.753906 C 205.195312 156.492188 204.203125 157.894531 202.808594 157.890625 Z M 202.605469 149.914062 C 200.605469 149.90625 199.179688 151.917969 199.417969 154.410156 C 199.660156 156.902344 201.476562 158.929688 203.472656 158.941406 C 205.472656 158.949219 206.898438 156.933594 206.660156 154.441406 C 206.417969 151.949219 204.601562 149.921875 202.605469 149.914062 Z M 168.230469 120.0625 C 167.632812 109.175781 162.082031 100.851562 155.824219 101.472656 C 153.996094 101.652344 152.3125 102.582031 150.855469 104.070312 C 152.191406 102.855469 153.699219 102.097656 155.324219 101.9375 C 161.515625 101.320312 167.011719 109.5625 167.601562 120.339844 C 168.179688 130.871094 163.851562 139.921875 157.875 140.90625 C 157.910156 140.902344 157.945312 140.902344 157.980469 140.898438 C 164.238281 140.277344 168.824219 130.949219 168.230469 120.0625 Z M 175.707031 107.660156 C 175.710938 107.660156 175.722656 107.660156 175.726562 107.664062 C 175.730469 107.664062 175.730469 107.664062 175.730469 107.664062 C 175.726562 107.664062 175.714844 107.660156 175.707031 107.660156 Z M 175.6875 112.640625 C 175.859375 112.621094 175.933594 112.632812 176.195312 112.605469 C 177.007812 112.523438 177.605469 111.347656 177.53125 109.972656 C 177.460938 108.6875 176.824219 107.6875 176.074219 107.632812 C 176.023438 107.628906 175.628906 107.613281 175.4375 107.636719 C 175.4375 107.636719 175.445312 107.636719 175.445312 107.636719 C 175.433594 107.636719 175.421875 107.636719 175.410156 107.636719 C 174.59375 107.71875 173.988281 108.90625 174.066406 110.285156 C 174.125 111.34375 174.5625 112.207031 175.132812 112.519531 C 174.613281 112.164062 174.222656 111.339844 174.167969 110.347656 C 174.09375 108.96875 174.695312 107.78125 175.511719 107.699219 C 175.703125 107.679688 175.886719 107.722656 176.058594 107.816406 C 176.582031 108.167969 176.976562 108.992188 177.03125 109.992188 C 177.105469 111.371094 176.503906 112.558594 175.6875 112.640625 Z M 155.070312 112.390625 C 155.132812 112.394531 155.195312 112.394531 155.253906 112.398438 C 155.242188 112.394531 155.226562 112.394531 155.214844 112.394531 C 155.164062 112.390625 155.117188 112.394531 155.070312 112.390625 Z M 199.660156 147.3125 C 198.570312 147.308594 197.582031 146.203125 197.453125 144.84375 C 197.320312 143.484375 198.097656 142.390625 199.1875 142.394531 C 200.273438 142.398438 201.265625 143.503906 201.394531 144.859375 C 201.527344 146.21875 200.75 147.316406 199.660156 147.3125 Z M 199.5 141.074219 C 197.9375 141.070312 196.820312 142.644531 197.007812 144.59375 C 197.195312 146.539062 198.617188 148.125 200.179688 148.132812 C 201.742188 148.140625 202.859375 146.566406 202.667969 144.617188 C 202.480469 142.667969 201.0625 141.082031 199.5 141.074219 Z M 202.398438 171.308594 L 195.667969 171.023438 C 195.667969 171.023438 193.6875 170.644531 195.144531 172.304688 C 196.605469 173.964844 198.960938 176.753906 198.960938 176.753906 C 198.960938 176.753906 199.460938 177.269531 199.761719 177.230469 C 200.066406 177.191406 200.339844 176.652344 200.339844 176.652344 C 200.339844 176.652344 202.488281 173.117188 202.929688 172.375 C 203.609375 171.25 202.398438 171.308594 202.398438 171.308594 Z M 219.675781 142.246094 L 220.609375 151.671875 C 221.234375 150.351562 221.523438 148.734375 221.355469 146.988281 C 221.183594 145.21875 220.574219 143.582031 219.675781 142.246094 Z M 151.382812 124.40625 C 151.535156 124.390625 151.601562 124.398438 151.832031 124.375 C 152.550781 124.304688 153.082031 123.265625 153.015625 122.050781 C 152.953125 120.914062 152.390625 120.027344 151.726562 119.980469 C 151.683594 119.976562 151.335938 119.964844 151.164062 119.984375 C 151.164062 119.984375 151.167969 119.984375 151.171875 119.984375 C 151.164062 119.984375 151.152344 119.984375 151.140625 119.984375 C 150.417969 120.058594 149.882812 121.105469 149.953125 122.328125 C 150.003906 123.261719 150.390625 124.023438 150.894531 124.300781 C 150.433594 123.988281 150.089844 123.257812 150.042969 122.382812 C 149.976562 121.160156 150.507812 120.113281 151.230469 120.039062 C 151.398438 120.023438 151.5625 120.0625 151.714844 120.144531 C 152.175781 120.453125 152.523438 121.183594 152.574219 122.066406 C 152.640625 123.289062 152.105469 124.335938 151.382812 124.40625 Z M 181.503906 86.425781 C 181.378906 86.417969 181.25 86.417969 181.125 86.417969 C 181.289062 86.421875 181.449219 86.421875 181.613281 86.433594 C 181.574219 86.429688 181.535156 86.425781 181.503906 86.425781 Z M 175.007812 90.019531 C 176.503906 88.660156 178.191406 87.8125 180.007812 87.628906 C 186.9375 86.945312 193.089844 96.164062 193.75 108.222656 C 194.394531 120.011719 189.554688 130.144531 182.863281 131.242188 C 182.90625 131.238281 182.945312 131.238281 182.980469 131.234375 C 189.984375 130.539062 195.117188 120.097656 194.453125 107.917969 C 193.785156 95.734375 187.570312 86.417969 180.570312 87.113281 C 178.523438 87.3125 176.640625 88.355469 175.007812 90.019531 Z M 179.933594 99.339844 C 179.914062 99.335938 179.898438 99.335938 179.886719 99.335938 C 179.832031 99.332031 179.777344 99.332031 179.726562 99.332031 C 179.792969 99.332031 179.863281 99.332031 179.933594 99.339844 Z M 154.707031 112.75 C 154.734375 112.757812 154.757812 112.761719 154.78125 112.765625 C 154.792969 112.769531 154.800781 112.773438 154.816406 112.777344 C 154.78125 112.765625 154.742188 112.761719 154.707031 112.75 Z M 152.535156 115.71875 C 152.542969 115.722656 152.546875 115.726562 152.558594 115.726562 C 152.535156 115.71875 152.507812 115.714844 152.488281 115.710938 C 152.503906 115.710938 152.523438 115.714844 152.535156 115.71875 Z M 156.480469 130.699219 C 159.433594 130.40625 161.601562 126.128906 161.332031 121.148438 C 161.078125 116.480469 158.761719 112.847656 156.042969 112.65625 C 155.863281 112.640625 154.433594 112.582031 153.734375 112.667969 C 153.738281 112.667969 153.757812 112.667969 153.769531 112.671875 C 153.726562 112.671875 153.683594 112.671875 153.640625 112.675781 C 151.636719 112.875 149.992188 114.902344 149.21875 117.738281 C 148.597656 118.949219 148.257812 120.578125 148.351562 122.332031 C 148.449219 124.09375 148.96875 125.644531 149.722656 126.71875 C 150.425781 128.429688 151.445312 129.734375 152.625 130.378906 C 151.703125 129.753906 150.902344 128.710938 150.289062 127.394531 C 150.527344 127.625 150.777344 127.816406 151.039062 127.957031 C 150.730469 127.75 150.441406 127.46875 150.175781 127.140625 C 150.15625 127.097656 150.136719 127.058594 150.121094 127.015625 C 149.972656 126.84375 149.832031 126.644531 149.699219 126.4375 C 149.097656 125.398438 148.695312 124.023438 148.609375 122.488281 C 148.417969 119.003906 149.9375 116.019531 152 115.8125 C 152.476562 115.765625 152.9375 115.875 153.371094 116.105469 C 154.691406 116.992188 155.6875 119.070312 155.824219 121.589844 C 156.015625 125.070312 154.496094 128.058594 152.433594 128.261719 C 152.863281 128.222656 153.058594 128.242188 153.714844 128.179688 C 155.765625 127.976562 157.277344 125.003906 157.085938 121.546875 C 156.910156 118.300781 155.300781 115.777344 153.414062 115.644531 C 153.289062 115.636719 152.296875 115.59375 151.808594 115.652344 C 151.8125 115.652344 151.824219 115.652344 151.832031 115.652344 C 151.800781 115.652344 151.773438 115.652344 151.746094 115.65625 C 151.132812 115.71875 150.570312 116.027344 150.085938 116.519531 C 150.964844 114.457031 152.367188 113.0625 154.011719 112.898438 C 154.691406 112.832031 155.355469 112.984375 155.976562 113.316406 C 157.878906 114.585938 159.316406 117.585938 159.515625 121.214844 C 159.789062 126.226562 157.601562 130.523438 154.632812 130.820312 C 155.253906 130.757812 155.53125 130.789062 156.480469 130.699219 Z M 173.390625 131.613281 L 175.152344 133.664062 C 175.152344 133.664062 175.667969 134.175781 174.949219 134.484375 C 174.226562 134.792969 172.066406 135.707031 172.066406 135.707031 C 172.066406 135.707031 171.449219 135.976562 171.761719 135.046875 C 172.074219 134.117188 172.851562 131.792969 172.851562 131.792969 C 172.851562 131.792969 172.9375 131.125 173.390625 131.613281 Z M 171.792969 130.578125 C 171.792969 130.578125 170.644531 134.265625 170.132812 135.789062 C 169.621094 137.3125 170.628906 136.871094 170.628906 136.871094 C 170.628906 136.871094 174.167969 135.375 175.347656 134.871094 C 176.527344 134.363281 175.683594 133.523438 175.683594 133.523438 L 172.796875 130.167969 C 172.050781 129.371094 171.792969 130.578125 171.792969 130.578125 Z M 154.703125 129.96875 C 154.71875 129.964844 154.734375 129.964844 154.75 129.964844 C 157.398438 129.703125 159.34375 125.75 159.089844 121.136719 C 158.839844 116.519531 156.484375 112.992188 153.832031 113.253906 C 153.058594 113.332031 152.34375 113.726562 151.730469 114.359375 C 152.292969 113.84375 152.933594 113.519531 153.621094 113.453125 C 156.246094 113.191406 158.574219 116.683594 158.828125 121.25 C 159.070312 125.714844 157.238281 129.550781 154.703125 129.96875 Z M 150.394531 149.5 C 150.398438 149.503906 150.402344 149.503906 150.40625 149.503906 C 150.394531 149.503906 150.378906 149.5 150.367188 149.496094 C 150.378906 149.5 150.386719 149.5 150.394531 149.5 Z M 139.90625 155.980469 L 148.054688 152.941406 C 148.054688 153.023438 148.054688 153.109375 148.058594 153.191406 C 148.066406 153.335938 148.082031 153.472656 148.097656 153.605469 Z M 141.328125 159.742188 C 140.046875 159.871094 138.871094 158.589844 138.699219 156.882812 C 138.679688 156.660156 138.675781 156.445312 138.6875 156.234375 C 138.277344 156.082031 137.304688 155.769531 136.367188 155.828125 C 136.8125 155.527344 138.253906 155.480469 138.8125 155.472656 C 138.820312 155.4375 138.828125 155.402344 138.839844 155.371094 C 138.484375 155.210938 137.617188 154.921875 135.957031 154.953125 C 136.777344 154.574219 138.570312 154.550781 139.214844 154.558594 C 139.226562 154.53125 139.242188 154.507812 139.261719 154.484375 C 138.820312 154.320312 137.652344 153.941406 136.320312 154 C 137.816406 153.519531 139.210938 153.847656 139.710938 153.996094 C 140 153.753906 140.339844 153.597656 140.714844 153.5625 C 140.941406 153.539062 141.160156 153.566406 141.375 153.625 C 141.164062 153.703125 141.035156 153.75 141.015625 153.753906 C 139.875 154.03125 139.101562 155.179688 139.25 156.722656 C 139.40625 158.367188 140.515625 159.480469 141.808594 159.625 C 141.65625 159.683594 141.496094 159.726562 141.328125 159.742188 Z M 148.089844 152.214844 C 148.066406 152.433594 148.050781 152.65625 148.050781 152.886719 L 139.585938 155.472656 Z M 150.902344 148.21875 C 150.703125 148.226562 150.558594 148.234375 150.488281 148.242188 C 149.253906 148.363281 148.347656 149.8125 148.167969 151.714844 C 148.136719 151.863281 148.113281 152.019531 148.09375 152.175781 L 140.058594 154.832031 L 148.136719 151.691406 C 148.15625 151.5 148.179688 151.316406 148.214844 151.136719 C 146.050781 151.917969 143.003906 153.035156 141.675781 153.515625 C 140.667969 152.898438 139.371094 152.644531 138.089844 152.769531 C 135.554688 153.023438 134.105469 155.097656 134.367188 157.746094 C 134.628906 160.394531 136.792969 162.464844 139.328125 162.214844 C 140.863281 162.0625 142.160156 160.925781 142.890625 159.464844 C 144.230469 159.050781 147.871094 157.875 150.066406 157.167969 C 150.160156 157.238281 150.257812 157.300781 150.359375 157.355469 C 150.269531 157.296875 150.183594 157.230469 150.101562 157.15625 C 150.105469 157.15625 150.109375 157.152344 150.117188 157.152344 C 150.054688 157.109375 150 157.058594 149.941406 157.007812 C 149.6875 156.765625 149.453125 156.460938 149.242188 156.109375 C 149.34375 156.199219 149.449219 156.273438 149.558594 156.335938 C 149.214844 156.101562 148.914062 155.71875 148.683594 155.234375 C 148.511719 154.839844 148.378906 154.402344 148.28125 153.941406 C 148.242188 153.726562 148.214844 153.507812 148.203125 153.28125 C 148.09375 151.335938 148.941406 149.667969 150.09375 149.554688 C 150.363281 149.527344 150.617188 149.585938 150.859375 149.71875 C 151.597656 150.210938 152.152344 151.375 152.230469 152.78125 C 152.335938 154.722656 151.488281 156.390625 150.335938 156.507812 C 150.578125 156.480469 150.6875 156.496094 151.054688 156.457031 C 152.199219 156.34375 153.042969 154.6875 152.933594 152.753906 C 152.835938 150.945312 151.9375 149.535156 150.882812 149.457031 C 150.8125 149.453125 150.257812 149.429688 149.988281 149.464844 C 149.992188 149.464844 149.996094 149.464844 149.996094 149.464844 C 149.984375 149.464844 149.96875 149.464844 149.953125 149.46875 C 149.4375 149.519531 148.984375 149.878906 148.648438 150.4375 C 149.046875 149.257812 149.777344 148.445312 150.683594 148.355469 C 151.011719 148.324219 151.335938 148.394531 151.648438 148.539062 C 151.679688 148.558594 151.71875 148.578125 151.753906 148.597656 C 152.75 149.261719 153.546875 150.789062 153.730469 152.632812 C 153.984375 155.214844 152.945312 157.425781 151.410156 157.582031 C 151.460938 157.574219 151.609375 157.566406 151.828125 157.558594 L 153.726562 176.722656 C 153.132812 177.917969 152.8125 179.507812 152.90625 181.214844 C 153.015625 183.257812 153.695312 185.011719 154.65625 186.070312 L 154.988281 189.441406 L 154.753906 186.175781 C 155.011719 186.441406 155.289062 186.664062 155.578125 186.820312 C 154.277344 185.933594 153.296875 183.863281 153.160156 181.371094 C 152.96875 177.902344 154.480469 174.925781 156.539062 174.722656 C 156.96875 174.679688 157.386719 174.769531 157.785156 174.957031 C 159.132812 175.792969 160.167969 177.941406 160.308594 180.550781 C 160.375 181.765625 160.238281 182.910156 159.949219 183.90625 C 159.382812 185.71875 158.289062 186.996094 156.972656 187.125 C 157.398438 187.082031 159.335938 187.035156 159.996094 186.96875 C 162.035156 186.765625 163.542969 183.851562 163.355469 180.402344 C 163.179688 177.171875 161.582031 174.699219 159.699219 174.566406 C 159.578125 174.558594 156.578125 174.558594 156.546875 174.558594 C 156.460938 174.558594 156.371094 174.558594 156.28125 174.570312 C 155.402344 174.65625 154.625 175.253906 154.035156 176.175781 L 152.695312 157.53125 C 154.1875 157.484375 156.472656 157.417969 156.808594 157.386719 C 158.335938 157.234375 159.367188 155.03125 159.113281 152.46875 C 158.875 150.066406 157.59375 148.199219 156.175781 148.097656 C 156.113281 148.09375 153.703125 148.136719 152.023438 148.183594 L 151.941406 147.03125 L 183.488281 133.289062 L 150.707031 146.25 Z M 176.378906 162.941406 C 176.359375 162.941406 176.339844 162.941406 176.320312 162.941406 C 176.34375 162.941406 176.371094 162.941406 176.398438 162.941406 C 176.398438 162.941406 176.386719 162.941406 176.378906 162.941406 Z M 173.386719 161.632812 C 173.398438 161.628906 173.410156 161.632812 173.425781 161.628906 C 175.902344 161.382812 177.71875 157.691406 177.484375 153.382812 C 177.25 149.070312 175.050781 145.777344 172.574219 146.023438 C 171.847656 146.09375 171.183594 146.460938 170.605469 147.050781 C 171.136719 146.570312 171.730469 146.269531 172.375 146.207031 C 174.828125 145.964844 177 149.226562 177.234375 153.492188 C 177.464844 157.660156 175.75 161.246094 173.386719 161.632812 Z M 179.699219 188.128906 C 179.6875 188.128906 179.675781 188.128906 179.667969 188.128906 C 179.636719 188.128906 179.601562 188.128906 179.570312 188.128906 C 179.613281 188.128906 179.65625 188.128906 179.699219 188.128906 Z M 175.964844 165.441406 C 175.9375 165.441406 175.726562 165.429688 175.625 165.445312 L 175.628906 165.445312 C 175.621094 165.445312 175.617188 165.445312 175.609375 165.445312 C 175.175781 165.488281 174.855469 166.117188 174.894531 166.851562 C 174.925781 167.414062 175.160156 167.875 175.460938 168.039062 C 175.1875 167.851562 174.976562 167.414062 174.949219 166.886719 C 174.910156 166.152344 175.230469 165.519531 175.664062 165.476562 C 175.765625 165.46875 175.863281 165.492188 175.953125 165.539062 C 176.234375 165.726562 176.441406 166.164062 176.472656 166.695312 C 176.511719 167.429688 176.191406 168.0625 175.757812 168.105469 C 175.847656 168.097656 175.886719 168.101562 176.027344 168.085938 C 176.460938 168.042969 176.777344 167.417969 176.738281 166.6875 C 176.703125 166.003906 176.363281 165.46875 175.964844 165.441406 Z M 176.367188 163 C 176.375 163 176.386719 163.003906 176.398438 163.003906 C 176.402344 163.007812 176.40625 163.007812 176.410156 163.007812 C 176.394531 163.007812 176.382812 163.003906 176.367188 163 Z M 176.917969 162.960938 C 176.84375 162.957031 176.25 162.929688 175.964844 162.964844 C 175.964844 162.964844 175.972656 162.964844 175.976562 162.964844 C 175.960938 162.96875 175.941406 162.96875 175.925781 162.96875 C 174.695312 163.089844 173.792969 164.871094 173.90625 166.945312 C 173.992188 168.527344 174.652344 169.824219 175.503906 170.292969 C 174.726562 169.761719 174.140625 168.527344 174.058594 167.035156 C 173.945312 164.960938 174.847656 163.183594 176.078125 163.0625 C 176.359375 163.035156 176.636719 163.097656 176.894531 163.234375 C 177.679688 163.761719 178.273438 165.003906 178.355469 166.5 C 178.46875 168.574219 177.566406 170.351562 176.335938 170.476562 C 176.589844 170.449219 176.707031 170.464844 177.101562 170.425781 C 178.320312 170.304688 179.21875 168.535156 179.105469 166.476562 C 179 164.542969 178.042969 163.042969 176.917969 162.960938 Z M 173.390625 145.550781 C 173.414062 145.554688 173.441406 145.558594 173.457031 145.566406 C 173.464844 145.566406 173.476562 145.570312 173.484375 145.574219 C 173.457031 145.566406 173.421875 145.558594 173.390625 145.550781 Z M 171.359375 148.324219 C 171.367188 148.324219 171.375 148.328125 171.378906 148.328125 C 171.359375 148.324219 171.335938 148.320312 171.3125 148.316406 C 171.332031 148.320312 171.347656 148.320312 171.359375 148.324219 Z M 174.636719 145.464844 C 174.46875 145.449219 173.132812 145.394531 172.476562 145.472656 C 172.488281 145.476562 172.5 145.476562 172.511719 145.476562 C 172.472656 145.476562 172.433594 145.476562 172.394531 145.480469 C 170.523438 145.667969 168.988281 147.5625 168.265625 150.207031 C 167.679688 151.339844 167.367188 152.859375 167.453125 154.5 C 167.542969 156.15625 168.035156 157.609375 168.746094 158.613281 C 169.398438 160.203125 170.34375 161.417969 171.445312 162.019531 C 170.582031 161.429688 169.828125 160.457031 169.261719 159.226562 C 169.480469 159.441406 169.71875 159.621094 169.960938 159.757812 C 168.738281 158.921875 167.820312 156.980469 167.695312 154.644531 C 167.515625 151.394531 168.933594 148.601562 170.859375 148.410156 C 171.304688 148.367188 171.734375 148.46875 172.140625 148.6875 C 173.375 149.511719 174.304688 151.457031 174.433594 153.808594 C 174.609375 157.058594 173.191406 159.847656 171.265625 160.042969 C 171.667969 160 171.847656 160.023438 172.464844 159.960938 C 174.378906 159.769531 175.789062 156.996094 175.613281 153.765625 C 175.445312 150.734375 173.945312 148.378906 172.179688 148.253906 C 172.0625 148.246094 171.132812 148.207031 170.679688 148.261719 C 170.6875 148.261719 170.695312 148.261719 170.703125 148.261719 C 170.675781 148.265625 170.648438 148.265625 170.621094 148.265625 C 170.050781 148.324219 169.523438 148.613281 169.074219 149.070312 C 169.894531 147.148438 171.203125 145.84375 172.738281 145.691406 C 173.371094 145.628906 173.988281 145.769531 174.570312 146.078125 C 176.351562 147.261719 177.695312 150.066406 177.878906 153.457031 C 178.136719 158.136719 176.09375 162.152344 173.320312 162.429688 C 173.898438 162.371094 174.160156 162.402344 175.046875 162.316406 C 177.804688 162.042969 179.832031 158.050781 179.578125 153.398438 C 179.339844 149.035156 177.179688 145.644531 174.636719 145.464844 Z M 149.792969 154.28125 C 149.878906 154.273438 149.917969 154.277344 150.046875 154.265625 C 150.453125 154.226562 150.753906 153.640625 150.714844 152.953125 C 150.679688 152.3125 150.363281 151.8125 149.988281 151.785156 C 149.964844 151.785156 149.765625 151.773438 149.671875 151.785156 C 149.671875 151.785156 149.671875 151.785156 149.675781 151.789062 C 149.675781 151.789062 149.664062 151.785156 149.65625 151.789062 C 149.25 151.828125 148.949219 152.421875 148.984375 153.109375 C 149.015625 153.636719 149.234375 154.066406 149.515625 154.222656 C 149.257812 154.046875 149.0625 153.632812 149.035156 153.140625 C 149 152.449219 149.300781 151.859375 149.707031 151.820312 C 149.800781 151.808594 149.890625 151.828125 149.980469 151.875 C 150.242188 152.054688 150.4375 152.464844 150.464844 152.960938 C 150.503906 153.648438 150.203125 154.242188 149.792969 154.28125 Z M 183.855469 219.230469 L 171.53125 219.734375 L 183.710938 218.128906 L 171.121094 218.820312 L 180.398438 217.265625 L 171.492188 217.707031 L 178.011719 216.46875 L 171.878906 216.726562 C 171.023438 217.441406 170.523438 218.707031 170.660156 220.09375 C 170.785156 221.367188 171.421875 222.4375 172.289062 223.011719 L 173.605469 220.277344 L 181.117188 219.613281 Z M 170.355469 156.320312 C 170.5 156.308594 170.5625 156.316406 170.78125 156.296875 C 171.460938 156.226562 171.960938 155.242188 171.898438 154.097656 C 171.835938 153.023438 171.304688 152.1875 170.679688 152.144531 C 170.640625 152.140625 170.3125 152.128906 170.148438 152.148438 C 170.148438 152.148438 170.15625 152.148438 170.15625 152.148438 C 170.148438 152.148438 170.136719 152.148438 170.128906 152.148438 C 169.445312 152.214844 168.941406 153.207031 169.003906 154.359375 C 169.054688 155.242188 169.417969 155.960938 169.894531 156.222656 C 169.460938 155.925781 169.132812 155.238281 169.089844 154.410156 C 169.027344 153.257812 169.53125 152.269531 170.214844 152.199219 C 170.371094 152.183594 170.523438 152.21875 170.667969 152.296875 C 171.105469 152.589844 171.433594 153.28125 171.480469 154.113281 C 171.542969 155.265625 171.039062 156.257812 170.355469 156.320312 Z M 171.363281 148.226562 C 171.351562 148.222656 171.339844 148.222656 171.335938 148.222656 C 171.304688 148.21875 171.273438 148.21875 171.242188 148.21875 C 171.28125 148.21875 171.320312 148.21875 171.363281 148.226562 Z M 163.003906 174.507812 L 160.519531 149.445312 L 179.191406 142.0625 L 182.003906 170.433594 Z M 160.078125 148.925781 L 162.792969 176.296875 L 183.984375 172.28125 L 180.851562 140.714844 Z M 150.394531 149.441406 C 150.394531 149.441406 150.382812 149.441406 150.378906 149.441406 C 150.359375 149.441406 150.339844 149.441406 150.324219 149.441406 C 150.347656 149.441406 150.371094 149.441406 150.394531 149.441406 Z M 166.367188 166.632812 C 166.292969 165.242188 165.5625 164.183594 164.742188 164.265625 C 163.917969 164.347656 163.316406 165.539062 163.390625 166.925781 C 163.46875 168.3125 164.195312 169.375 165.019531 169.292969 C 165.839844 169.210938 166.445312 168.019531 166.367188 166.632812 Z M 173.863281 145.21875 C 173.816406 145.214844 173.769531 145.214844 173.726562 145.214844 C 173.785156 145.21875 173.84375 145.21875 173.902344 145.222656 C 173.886719 145.21875 173.871094 145.21875 173.863281 145.21875 Z M 185.390625 213.160156 C 181.136719 213.582031 177.285156 214.050781 174.433594 214.472656 C 174.476562 214.015625 179.320312 213.167969 185.332031 212.574219 C 191.34375 211.976562 196.261719 211.855469 196.390625 212.296875 C 193.511719 212.441406 189.640625 212.738281 185.390625 213.160156 Z M 188.351562 221.234375 C 187.300781 221.339844 186.347656 220.429688 186.132812 219.171875 C 186.328125 220.253906 187.15625 221.027344 188.058594 220.9375 C 189.023438 220.84375 189.707031 219.800781 189.589844 218.609375 C 189.472656 217.414062 188.59375 216.523438 187.628906 216.621094 C 186.726562 216.710938 186.070312 217.636719 186.085938 218.730469 C 186.054688 217.457031 186.8125 216.375 187.859375 216.273438 C 188.964844 216.164062 189.976562 217.183594 190.109375 218.554688 C 190.246094 219.925781 189.457031 221.125 188.351562 221.234375 Z M 177.347656 209.050781 L 175.695312 212.476562 C 175.515625 212.507812 175.34375 212.535156 175.179688 212.566406 Z M 176.457031 212.355469 C 176.203125 212.394531 175.964844 212.433594 175.738281 212.472656 L 177.972656 208.839844 Z M 177.378906 212.21875 C 177.085938 212.261719 176.796875 212.304688 176.527344 212.34375 L 178.742188 208.617188 Z M 178.457031 212.066406 C 178.113281 212.109375 177.78125 212.160156 177.464844 212.203125 L 179.472656 208.574219 Z M 179.515625 211.921875 C 179.183594 211.964844 178.859375 212.007812 178.546875 212.050781 L 180.195312 208.472656 Z M 180.742188 211.761719 C 180.363281 211.808594 179.996094 211.859375 179.636719 211.90625 L 180.953125 208.457031 Z M 181.886719 211.621094 C 181.546875 211.660156 181.222656 211.703125 180.902344 211.742188 L 181.757812 208.320312 Z M 182.671875 208.238281 L 183.097656 211.472656 C 182.757812 211.515625 182.425781 211.554688 182.097656 211.59375 Z M 183.910156 208.136719 L 184.429688 211.320312 C 184.066406 211.359375 183.703125 211.402344 183.351562 211.445312 Z M 185.140625 207.972656 L 185.730469 211.175781 C 185.375 211.214844 185.027344 211.253906 184.683594 211.292969 Z M 186.503906 207.855469 L 187.210938 211.015625 C 186.804688 211.058594 186.40625 211.101562 186.011719 211.144531 Z M 187.832031 207.757812 L 188.746094 210.855469 C 188.320312 210.898438 187.902344 210.941406 187.488281 210.984375 Z M 183.890625 222.808594 C 185.042969 222.734375 186.042969 222.667969 186.699219 222.621094 C 186.039062 222.667969 185.042969 222.734375 183.890625 222.808594 Z M 179.496094 188.242188 C 179.503906 188.246094 179.511719 188.25 179.519531 188.25 C 179.496094 188.246094 179.472656 188.242188 179.449219 188.234375 C 179.464844 188.238281 179.484375 188.242188 179.496094 188.242188 Z M 174.335938 191.410156 C 174.339844 191.410156 174.34375 191.414062 174.347656 191.414062 C 174.335938 191.410156 174.324219 191.410156 174.308594 191.40625 C 174.316406 191.40625 174.328125 191.410156 174.335938 191.410156 Z M 172.417969 196.613281 C 172.417969 196.613281 172.417969 196.609375 172.417969 196.609375 L 172.40625 196.617188 C 172.367188 196.5 172.335938 196.382812 172.308594 196.261719 L 172.3125 196.257812 C 172.3125 196.253906 172.308594 196.25 172.308594 196.246094 L 172.304688 196.25 C 172.257812 196.0625 172.21875 195.867188 172.191406 195.667969 C 172.25 195.996094 172.324219 196.3125 172.417969 196.613281 Z M 172.488281 196.828125 C 172.460938 196.761719 172.433594 196.695312 172.410156 196.628906 L 172.421875 196.621094 C 172.441406 196.691406 172.464844 196.761719 172.488281 196.828125 Z M 158.316406 206.230469 L 172.320312 196.6875 C 172.367188 196.816406 172.421875 196.941406 172.476562 197.058594 Z M 159.742188 208.269531 C 159.101562 208.703125 158.113281 208.367188 157.535156 207.515625 C 156.957031 206.667969 157.003906 205.625 157.644531 205.191406 C 157.816406 205.070312 158.015625 205.015625 158.222656 205.007812 C 158.023438 205.140625 157.90625 205.21875 157.898438 205.226562 C 157.304688 205.628906 157.261719 206.59375 157.796875 207.382812 C 158.335938 208.171875 159.25 208.484375 159.839844 208.082031 C 159.839844 208.082031 159.914062 208.03125 160.03125 207.953125 C 159.957031 208.078125 159.863281 208.1875 159.742188 208.269531 Z M 172.207031 196.328125 C 172.242188 196.445312 172.273438 196.566406 172.316406 196.675781 L 158.378906 205.816406 Z M 172.140625 196.085938 C 172.160156 196.164062 172.179688 196.238281 172.203125 196.3125 L 158.511719 205.398438 Z M 147.617188 212.242188 L 156.253906 206.828125 C 156.289062 207.003906 156.335938 207.175781 156.402344 207.355469 Z M 156.210938 206.226562 C 156.199219 206.414062 156.214844 206.613281 156.253906 206.8125 L 147.9375 211.46875 Z M 210.625 215.910156 C 210.441406 214.070312 209.105469 212.65625 207.492188 212.433594 L 207.226562 209.753906 L 207.210938 209.757812 C 207.214844 209.746094 207.222656 209.738281 207.222656 209.730469 C 207.214844 209.636719 206.75 209.589844 205.921875 209.589844 C 205.425781 208.949219 203.066406 206.203125 203.058594 206.132812 C 203.042969 205.992188 199.136719 205.871094 193.804688 206.210938 L 193.3125 201.121094 C 193.539062 201.097656 193.703125 201.078125 193.78125 201.070312 C 196.460938 200.804688 198.300781 197.261719 197.855469 192.761719 C 197.546875 189.65625 196.25 187.132812 194.589844 185.949219 L 210.375 182.933594 L 188.527344 184.144531 L 155.09375 190.480469 L 176.515625 189.082031 C 176.390625 189.382812 176.277344 189.699219 176.179688 190.03125 C 175.386719 190.082031 174.65625 190.128906 174.429688 190.148438 C 173.1875 190.273438 172.273438 191.742188 172.101562 193.664062 C 172.011719 194.109375 171.972656 194.597656 172 195.101562 C 172.015625 195.34375 172.046875 195.574219 172.085938 195.800781 C 168.550781 198.125 160.988281 203.164062 158.621094 204.742188 C 158.023438 204.492188 157.398438 204.5 156.917969 204.824219 C 156.597656 205.042969 156.386719 205.371094 156.28125 205.757812 C 154.226562 206.867188 147.945312 210.488281 147.800781 210.585938 C 146.78125 211.28125 146.707031 212.9375 147.625 214.289062 C 148.394531 215.414062 149.609375 215.972656 150.582031 215.730469 C 150.851562 215.683594 151.144531 215.582031 151.445312 215.394531 C 151.570312 215.320312 151.679688 215.234375 151.777344 215.144531 C 151.917969 215.015625 157.011719 210.757812 158.757812 209.335938 C 159.136719 209.371094 159.503906 209.296875 159.8125 209.085938 C 160.269531 208.773438 160.503906 208.242188 160.515625 207.636719 C 162.921875 206.054688 171.113281 200.671875 173.808594 198.917969 C 173.964844 199.054688 174.128906 199.175781 174.300781 199.265625 C 173.878906 198.984375 173.496094 198.554688 173.175781 198.011719 C 173.28125 198.101562 173.386719 198.183594 173.5 198.246094 C 173.355469 198.148438 173.222656 198.015625 173.097656 197.871094 C 172.695312 197.140625 172.40625 196.222656 172.308594 195.210938 C 172.242188 194.539062 172.265625 193.890625 172.359375 193.300781 C 172.671875 192.269531 173.289062 191.539062 174.035156 191.464844 C 174.300781 191.4375 174.5625 191.496094 174.800781 191.625 C 175.542969 192.121094 176.097656 193.28125 176.171875 194.6875 C 176.28125 196.632812 175.429688 198.300781 174.28125 198.414062 C 174.519531 198.390625 174.628906 198.40625 174.996094 198.367188 C 176.140625 198.253906 176.984375 196.597656 176.878906 194.664062 C 176.777344 192.851562 175.882812 191.445312 174.828125 191.367188 C 174.757812 191.363281 174.203125 191.339844 173.929688 191.375 C 173.933594 191.375 173.9375 191.375 173.9375 191.375 C 173.925781 191.375 173.910156 191.375 173.894531 191.378906 C 173.378906 191.425781 172.925781 191.789062 172.589844 192.347656 C 172.988281 191.167969 173.714844 190.355469 174.625 190.265625 C 174.980469 190.230469 175.328125 190.308594 175.660156 190.480469 C 176.675781 191.136719 177.488281 192.679688 177.671875 194.542969 C 177.925781 197.125 176.890625 199.335938 175.355469 199.488281 C 175.507812 199.472656 176.308594 199.414062 177.167969 199.347656 C 177.835938 200.578125 178.691406 201.515625 179.632812 202.015625 C 178.851562 201.5 178.140625 200.675781 177.558594 199.640625 C 177.832031 199.910156 178.121094 200.125 178.421875 200.28125 C 178.058594 200.046875 177.71875 199.726562 177.410156 199.332031 C 178.285156 199.265625 179.160156 199.199219 179.394531 199.175781 C 180.921875 199.023438 181.953125 196.824219 181.695312 194.261719 C 181.460938 191.855469 180.175781 189.988281 178.761719 189.886719 C 178.714844 189.882812 177.804688 189.933594 176.824219 189.992188 C 177.375 189.074219 178.117188 188.46875 178.976562 188.351562 C 179.441406 188.292969 179.898438 188.382812 180.328125 188.597656 C 181.652344 189.421875 182.691406 191.425781 182.90625 193.890625 C 183.203125 197.289062 181.8125 200.265625 179.800781 200.535156 C 180.21875 200.476562 180.410156 200.496094 181.054688 200.410156 C 183.054688 200.144531 184.4375 197.1875 184.140625 193.804688 C 183.863281 190.632812 182.207031 188.214844 180.351562 188.140625 C 180.230469 188.136719 179.257812 188.128906 178.78125 188.203125 C 178.789062 188.203125 178.796875 188.203125 178.804688 188.203125 C 178.777344 188.207031 178.746094 188.207031 178.71875 188.210938 C 177.941406 188.3125 177.257812 188.824219 176.726562 189.609375 C 177.4375 187.683594 178.679688 186.375 180.203125 186.226562 C 180.824219 186.164062 181.4375 186.304688 182.019531 186.605469 C 183.800781 187.753906 185.226562 190.460938 185.546875 193.734375 C 185.996094 198.257812 184.175781 202.144531 181.480469 202.410156 C 181.695312 202.390625 183.378906 202.207031 185.4375 201.980469 C 185.691406 201.730469 188.347656 199.21875 191.507812 198.9375 C 192.464844 198.90625 193.179688 199.535156 193.21875 200.199219 L 193.246094 200.4375 C 193.207031 199.773438 192.539062 199.648438 191.582031 199.683594 C 188.253906 199.976562 185.414062 202.003906 185.414062 202.003906 L 185.890625 206.996094 C 180.59375 207.710938 176.789062 208.597656 176.804688 208.734375 C 176.808594 208.792969 175.511719 211.117188 174.910156 212.238281 L 176.921875 208.976562 L 175.144531 212.574219 C 175.007812 212.59375 174.878906 212.617188 174.757812 212.640625 L 174.695312 212.644531 C 174.695312 212.648438 174.691406 212.652344 174.691406 212.652344 C 173.679688 212.84375 173.117188 213.003906 173.128906 213.109375 C 173.128906 213.117188 173.136719 213.125 173.148438 213.132812 L 173.128906 213.132812 L 173.425781 216.117188 C 173.355469 216.121094 173.300781 216.128906 173.257812 216.132812 C 172.8125 216.175781 172.398438 216.347656 172.039062 216.605469 L 176.878906 215.863281 L 176.863281 215.863281 C 180.652344 215.589844 186.085938 215.210938 186.746094 215.144531 C 185.089844 215.308594 183.914062 217.101562 184.117188 219.148438 C 184.320312 221.199219 185.828125 222.726562 187.480469 222.558594 C 187.367188 222.574219 187.109375 222.59375 186.75 222.617188 C 185.464844 222.457031 185.003906 221.941406 185.003906 221.941406 L 183.339844 222.003906 L 183.003906 221.429688 L 184.433594 221.042969 L 182.851562 221.175781 L 182.476562 220.539062 L 184.078125 220.242188 L 182.339844 220.304688 L 181.894531 219.542969 L 181.4375 220.457031 L 181.285156 220.765625 L 181 221.332031 L 180.878906 221.574219 L 180.617188 222.101562 L 180.433594 222.472656 L 177.8125 227.722656 L 181.265625 227.722656 L 182.636719 225.113281 L 182.460938 227.722656 L 191.511719 227.722656 L 192.226562 221.132812 L 197.480469 220.613281 C 197.941406 220.570312 198.214844 219.566406 198.097656 218.375 C 198.058594 217.984375 197.980469 217.625 197.878906 217.316406 C 198.007812 217.300781 198.136719 217.285156 198.265625 217.273438 C 198.238281 215.367188 199.464844 213.734375 201.175781 213.386719 C 201.289062 213.359375 201.402344 213.34375 201.519531 213.332031 C 201.640625 213.320312 201.757812 213.3125 201.875 213.316406 C 201.914062 213.316406 201.953125 213.320312 201.996094 213.320312 C 202.070312 213.324219 202.148438 213.328125 202.222656 213.335938 C 202.269531 213.34375 202.316406 213.351562 202.367188 213.359375 C 202.433594 213.367188 202.496094 213.378906 202.5625 213.394531 C 202.613281 213.402344 202.664062 213.417969 202.71875 213.429688 C 202.773438 213.445312 202.832031 213.460938 202.890625 213.480469 C 202.945312 213.5 203 213.519531 203.050781 213.539062 C 203.101562 213.558594 203.152344 213.578125 203.203125 213.601562 C 203.261719 213.625 203.316406 213.652344 203.371094 213.675781 C 203.414062 213.699219 203.457031 213.722656 203.5 213.746094 C 203.558594 213.777344 203.621094 213.8125 203.675781 213.847656 C 203.707031 213.867188 203.742188 213.890625 203.773438 213.910156 C 203.839844 213.953125 203.902344 213.996094 203.964844 214.042969 C 203.976562 214.054688 203.992188 214.066406 204.007812 214.078125 C 204.511719 214.472656 204.921875 215 205.195312 215.617188 C 205.195312 215.621094 205.195312 215.621094 205.195312 215.625 C 205.242188 215.726562 205.285156 215.835938 205.320312 215.945312 C 205.324219 215.945312 205.324219 215.949219 205.324219 215.953125 C 205.363281 216.0625 205.394531 216.171875 205.425781 216.285156 C 205.480469 216.496094 205.519531 216.710938 205.542969 216.929688 C 205.757812 219.117188 204.308594 221.050781 202.304688 221.25 C 202.757812 221.207031 203.640625 221.023438 204.578125 220.816406 C 204.507812 220.851562 204.464844 220.867188 204.464844 220.867188 L 211.605469 227.722656 L 213.085938 227.722656 L 205.269531 220.347656 C 205.792969 219.878906 206.414062 219.03125 206.640625 217.558594 C 206.640625 217.558594 206.644531 217.5625 206.652344 217.570312 C 206.652344 217.574219 206.660156 217.582031 206.664062 217.585938 C 206.667969 217.589844 206.671875 217.59375 206.679688 217.601562 C 206.6875 217.609375 206.695312 217.617188 206.703125 217.625 C 206.710938 217.636719 206.722656 217.644531 206.730469 217.652344 C 206.742188 217.667969 206.757812 217.683594 206.773438 217.699219 C 206.777344 217.699219 206.78125 217.703125 206.78125 217.707031 C 206.828125 217.75 206.878906 217.804688 206.941406 217.867188 C 206.953125 217.878906 206.964844 217.890625 206.972656 217.902344 C 207.003906 217.929688 207.03125 217.957031 207.0625 217.988281 C 207.0625 217.992188 207.066406 217.996094 207.070312 217.996094 C 208.253906 219.199219 211.820312 222.8125 216.675781 227.722656 L 220.433594 227.722656 L 210.492188 217.441406 C 210.625 216.960938 210.675781 216.441406 210.625 215.910156 Z M 165.941406 158.492188 C 165.925781 158.496094 165.90625 158.5 165.890625 158.5 C 165.894531 158.5 165.902344 158.5 165.902344 158.5 C 166 158.492188 166.519531 158.46875 166.683594 158.460938 C 166.78125 158.457031 166.886719 158.421875 166.988281 158.328125 C 167.390625 157.976562 166.761719 157.070312 166.761719 157.070312 L 164.296875 153.367188 C 164.296875 153.367188 164.011719 152.914062 163.550781 152.96875 C 163.4375 152.980469 162.84375 153 162.792969 153.003906 C 162.785156 153.003906 162.78125 153.003906 162.773438 153.003906 C 163.21875 152.972656 163.496094 153.40625 163.496094 153.40625 L 165.960938 157.109375 C 165.960938 157.109375 166.585938 158.019531 166.191406 158.367188 C 166.109375 158.441406 166.027344 158.476562 165.945312 158.492188 C 165.921875 158.488281 165.699219 158.484375 165.539062 158.324219 C 164.78125 157.550781 162.3125 154.589844 162.3125 154.589844 C 162.246094 154.457031 161.578125 153.890625 162.339844 153.210938 C 162.410156 153.152344 162.46875 153.105469 162.53125 153.070312 C 162.433594 153.113281 162.332031 153.175781 162.222656 153.273438 C 161.457031 153.957031 162.070312 154.570312 162.136719 154.703125 L 165.265625 158.132812 C 165.265625 158.132812 165.578125 158.558594 165.941406 158.492188 Z M 203.5625 217.128906 C 203.429688 215.804688 202.339844 214.828125 201.125 214.945312 C 199.910156 215.066406 199.03125 216.238281 199.164062 217.5625 C 199.292969 218.890625 200.386719 219.867188 201.601562 219.746094 C 202.816406 219.625 203.691406 218.453125 203.5625 217.128906 Z M 166.941406 160.625 C 166.933594 160.625 166.925781 160.625 166.925781 160.625 C 166.886719 160.621094 166.855469 160.621094 166.824219 160.621094 C 166.863281 160.621094 166.90625 160.621094 166.941406 160.625 Z M 166.597656 160.851562 C 166.613281 160.851562 166.632812 160.855469 166.640625 160.859375 C 166.648438 160.859375 166.65625 160.863281 166.660156 160.863281 C 166.640625 160.859375 166.617188 160.855469 166.597656 160.851562 Z M 165.214844 162.734375 C 165.222656 162.734375 165.222656 162.738281 165.230469 162.738281 C 165.214844 162.734375 165.199219 162.730469 165.1875 162.730469 C 165.195312 162.730469 165.207031 162.730469 165.214844 162.734375 Z M 167.441406 160.789062 C 167.332031 160.78125 166.421875 160.742188 165.976562 160.796875 C 165.980469 160.796875 165.992188 160.796875 166 160.796875 C 165.972656 160.800781 165.945312 160.800781 165.917969 160.804688 C 164.648438 160.929688 163.605469 162.214844 163.113281 164.011719 C 162.714844 164.78125 162.5 165.816406 162.558594 166.933594 C 162.621094 168.0625 162.953125 169.050781 163.4375 169.734375 C 163.882812 170.816406 164.527344 171.640625 165.273438 172.050781 C 164.6875 171.648438 164.175781 170.988281 163.789062 170.152344 C 163.941406 170.296875 164.097656 170.417969 164.265625 170.511719 C 163.433594 169.941406 162.808594 168.625 162.722656 167.035156 C 162.601562 164.824219 163.566406 162.925781 164.875 162.796875 C 165.179688 162.765625 165.472656 162.832031 165.746094 162.980469 C 166.585938 163.542969 167.21875 164.863281 167.304688 166.464844 C 167.425781 168.675781 166.460938 170.574219 165.152344 170.703125 C 165.425781 170.675781 165.546875 170.691406 165.964844 170.648438 C 167.269531 170.519531 168.226562 168.632812 168.105469 166.4375 C 167.992188 164.375 166.972656 162.773438 165.773438 162.6875 C 165.695312 162.679688 165.0625 162.65625 164.753906 162.691406 C 164.753906 162.691406 164.765625 162.691406 164.769531 162.695312 C 164.75 162.695312 164.730469 162.695312 164.714844 162.695312 C 164.328125 162.734375 163.972656 162.929688 163.664062 163.238281 C 164.222656 161.933594 165.109375 161.050781 166.152344 160.945312 C 166.585938 160.902344 167.011719 161 167.40625 161.210938 C 168.613281 162.019531 169.523438 163.921875 169.652344 166.226562 C 169.824219 169.410156 168.433594 172.140625 166.550781 172.328125 C 166.941406 172.289062 167.121094 172.308594 167.722656 172.25 C 169.597656 172.066406 170.976562 169.347656 170.800781 166.183594 C 170.640625 163.21875 169.171875 160.914062 167.441406 160.789062 Z M 165.214844 162.667969 C 165.210938 162.667969 165.203125 162.664062 165.199219 162.664062 C 165.175781 162.664062 165.15625 162.664062 165.136719 162.664062 C 165.164062 162.664062 165.1875 162.664062 165.214844 162.667969 " fill-opacity="1" fill-rule="nonzero"/></g><g fill="#FFFFFF" fill-opacity="1"><g transform="translate(111.501946, 266.017881)"><g><path d="M 16.835938 -7.6875 C 16.5625 -7.382812 14.554688 -4.710938 12.003906 -4.710938 C 9.117188 -4.710938 7.566406 -7.414062 7.566406 -10.421875 C 7.566406 -13.734375 8.996094 -16.4375 11.183594 -16.4375 C 13.339844 -16.4375 14.3125 -14.585938 14.402344 -12.609375 L 19.84375 -12.609375 L 19.84375 -21.242188 L 15.070312 -21.242188 L 14.371094 -19.539062 C 14.097656 -19.902344 12.730469 -21.605469 9.695312 -21.605469 C 5.710938 -21.605469 0.457031 -17.410156 0.457031 -10.421875 C 0.457031 -3.644531 4.742188 0.484375 11.183594 0.484375 C 15.164062 0.484375 18.324219 -1.519531 20.390625 -3.796875 Z M 16.835938 -7.6875 "/></g></g></g><g fill="#FFFFFF" fill-opacity="1"><g transform="translate(132.345556, 266.017881)"><g><path d="M 0.757812 -21.242188 L 0.757812 -17.230469 L 2.675781 -17.230469 L 2.675781 -4.042969 L 0.757812 -4.042969 L 0.757812 0 L 10.847656 0 L 10.847656 -4.042969 L 8.964844 -4.042969 L 8.964844 -17.230469 L 10.847656 -17.230469 L 10.847656 -21.242188 Z M 0.757812 -21.242188 "/></g></g></g><g fill="#FFFFFF" fill-opacity="1"><g transform="translate(143.952346, 266.017881)"><g><path d="M 24.035156 -17.320312 L 24.035156 -21.242188 L 14.890625 -21.242188 L 14.890625 -17.320312 L 16.957031 -17.320312 L 16.957031 -10.089844 L 9.511719 -21.242188 L 0.789062 -21.242188 L 0.789062 -17.320312 L 2.550781 -17.320312 L 2.550781 -3.917969 L 0.757812 -3.917969 L 0.757812 0 L 10.089844 0 L 10.089844 -3.917969 L 7.75 -3.917969 L 7.75 -11.578125 L 15.496094 0 L 22.03125 0 L 22.03125 -17.320312 Z M 24.035156 -17.320312 "/></g></g></g><g fill="#FFFFFF" fill-opacity="1"><g transform="translate(168.745911, 266.017881)"><g><path d="M 0.757812 -21.242188 L 0.757812 -17.230469 L 2.675781 -17.230469 L 2.675781 -4.042969 L 0.757812 -4.042969 L 0.757812 0 L 19.082031 0 L 19.082031 -6.867188 L 13.824219 -6.867188 L 13.824219 -4.042969 L 8.964844 -4.042969 L 8.964844 -8.996094 L 14.738281 -8.996094 L 14.738281 -13.035156 L 8.964844 -13.035156 L 8.964844 -17.230469 L 13.824219 -17.230469 L 13.824219 -14.523438 L 19.082031 -14.523438 L 19.082031 -21.242188 Z M 0.757812 -21.242188 "/></g></g></g><g fill="#FFFFFF" fill-opacity="1"><g transform="translate(188.58684, 266.017881)"><g><path d="M 0.757812 -21.242188 L 0.757812 -17.230469 L 2.644531 -17.230469 L 2.644531 -4.042969 L 0.757812 -4.042969 L 0.757812 0 L 12.0625 0 L 12.0625 -4.042969 L 8.964844 -4.042969 L 8.964844 -7.902344 L 14.738281 -7.902344 L 14.738281 -11.941406 L 8.964844 -11.941406 L 8.964844 -17.230469 L 13.550781 -17.230469 L 13.550781 -14.523438 L 18.929688 -14.523438 L 18.929688 -21.242188 Z M 0.757812 -21.242188 "/></g></g></g><g fill="#FFFFFF" fill-opacity="1"><g transform="translate(207.972002, 266.017881)"><g><path d="M 0.757812 -21.242188 L 0.757812 -17.230469 L 2.429688 -17.230469 L 2.429688 -4.042969 L 0.757812 -4.042969 L 0.757812 0 L 17.777344 0 L 17.777344 -7.902344 L 12.671875 -7.902344 L 12.671875 -4.042969 L 8.75 -4.042969 L 8.75 -17.230469 L 10.363281 -17.230469 L 10.363281 -21.242188 Z M 0.757812 -21.242188 "/></g></g></g><g fill="#FFFFFF" fill-opacity="1"><g transform="translate(226.50641, 266.017881)"><g><path d="M 0.757812 -21.242188 L 0.757812 -17.230469 L 2.675781 -17.230469 L 2.675781 -4.042969 L 0.757812 -4.042969 L 0.757812 0 L 10.847656 0 L 10.847656 -4.042969 L 8.964844 -4.042969 L 8.964844 -17.230469 L 10.847656 -17.230469 L 10.847656 -21.242188 Z M 0.757812 -21.242188 "/></g></g></g><g fill="#FFFFFF" fill-opacity="1"><g transform="translate(238.113201, 266.017881)"><g><path d="M 10.847656 0 L 10.847656 -3.917969 L 8.144531 -3.917969 L 11.273438 -7.902344 L 11.910156 -7.050781 L 14.222656 -3.949219 L 12.488281 -3.949219 L 12.488281 0 L 24.613281 0 L 24.613281 -3.949219 L 22.851562 -3.949219 L 17.382812 -11.425781 L 21.96875 -17.289062 L 24.550781 -17.289062 L 24.550781 -21.242188 L 14.464844 -21.242188 L 14.464844 -17.289062 L 17.136719 -17.289062 L 14.039062 -13.25 L 11.0625 -17.289062 L 12.824219 -17.289062 L 12.824219 -21.242188 L 0.789062 -21.242188 L 0.789062 -17.289062 L 2.371094 -17.289062 L 7.871094 -9.722656 L 3.402344 -3.917969 L 0.757812 -3.917969 L 0.757812 0 Z M 10.847656 0 "/></g></g></g></svg>